<svg xmlns="http://www.w3.org/2000/svg" width="240" height="240" viewBox="0 0 240 240"><rect width="240" height="240" rx="48" fill="#eeeafb"/><ellipse cx="120" cy="194" rx="67" ry="12" fill="#243252" opacity=".09"/><g stroke-linecap="round" stroke-linejoin="round"><path d="M39 69q45-21 81 2 36-23 81-2v117q-46-22-81 0-36-22-81 0z" fill="#8c82df"/><path d="M48 57q39-20 72 4 33-24 72-4v115q-38-18-72 4-34-22-72-4z" fill="#fff9e9"/><path d="M120 62v113" stroke="#cbbce7" stroke-width="5"/><path d="M63 87q22-5 40 3m-40 19q22-5 40 3m32-22q22-8 40-3m-40 25q22-8 40-3" stroke="#c8c0e7" stroke-width="5" fill="none"/></g></svg>