<svg xmlns="http://www.w3.org/2000/svg" width="240" height="240" viewBox="0 0 240 240"><rect width="240" height="240" rx="48" fill="#eaf4eb"/><ellipse cx="120" cy="194" rx="67" ry="12" fill="#243252" opacity=".09"/><g stroke-linecap="round" stroke-linejoin="round"><ellipse cx="58" cy="116" rx="25" ry="54" fill="#a77d66" transform="rotate(20 58 116)"/><ellipse cx="180" cy="116" rx="25" ry="54" fill="#a77d66" transform="rotate(-20 180 116)"/><ellipse cx="120" cy="127" rx="70" ry="62" fill="#ead0ad"/><g fill="#293348"><ellipse cx="94" cy="126" rx="5" ry="7"/><ellipse cx="143" cy="126" rx="5" ry="7"/></g><path d="M113 146q7 9 14 0" fill="none" stroke="#293348" stroke-width="4"/><ellipse cx="78" cy="146" rx="11" ry="6" fill="#f49dba"/><ellipse cx="162" cy="146" rx="11" ry="6" fill="#f49dba"/><ellipse cx="120" cy="148" rx="24" ry="20" fill="#fff0d9"/><path d="M109 142q11-12 22 0l-11 10z" fill="#5b4c47"/></g></svg>