<svg xmlns="http://www.w3.org/2000/svg" viewBox="0 0 150 160"><g transform="translate(75 55)"><g stroke="#344c3c" stroke-width="3" stroke-linecap="round" stroke-linejoin="round"><path class="arm-left" d="M-22 31 Q-42 48 -40 66" fill="none"/><path class="arm-right" d="M22 31 Q40 39 43 20" fill="none"/><path class="leg-left" d="M-14 65 L-20 89 L-4 89" fill="none" stroke-width="9"/><path class="leg-right" d="M14 65 L21 89 L34 89" fill="none" stroke-width="9"/><rect x="-29" y="14" width="58" height="58" rx="24" fill="#ffc85c"/><path d="M-19 35 Q0 48 19 35 L17 69 L-17 69Z" fill="#398565"/><circle cx="0" cy="3" r="36" fill="#ffc85c"/><path d="M-28 -23 Q-36 -50 -13 -32 M12 -31 Q34 -51 28 -22" fill="#ffc85c"/><path d="M-6 -31 Q1 -43 9 -33" fill="#6b9660"/><ellipse cx="-13" cy="1" rx="3" ry="4" fill="#344c3c" stroke="none"/><ellipse cx="13" cy="1" rx="3" ry="4" fill="#344c3c" stroke="none"/><ellipse cx="-23" cy="12" rx="7" ry="4" fill="#ed936f" stroke="none"/><ellipse cx="23" cy="12" rx="7" ry="4" fill="#ed936f" stroke="none"/><ellipse cx="0" cy="15" rx="5" ry="7" fill="#344c3c"/><circle cx="0" cy="54" r="5" fill="#ffe9b0" stroke="none"/></g></g></svg>