<svg xmlns="http://www.w3.org/2000/svg" viewBox="0 0 640 450" role="img" aria-label="달봉이와 친구들이 풀밭에서 함께 노는 모습"><path d="M0 393Q156 208 368 318T655 326V450H0" fill="#d1deb9"/><ellipse cx="345" cy="399" rx="263" ry="48" fill="#b9d19e"/><path d="M94 196v176" stroke="#ab845e" stroke-width="21"/><circle cx="98" cy="177" r="72" fill="#87ab75"/><circle cx="54" cy="207" r="48" fill="#9aba83"/><path d="M462 160h123v150H462z" fill="#d9b893"/><path d="M440 163l84-64 85 64z" fill="#dd9774"/><path d="M509 228q17-28 34 0v82h-34" fill="#927f5f"/><circle cx="560" cy="64" r="27" fill="#f3cf70"/><g transform="translate(329 242) scale(1.45) rotate(-8)"><g stroke="#344c3c" stroke-width="3" stroke-linecap="round" stroke-linejoin="round"><path class="arm-left" d="M-22 31 Q-42 48 -40 66" fill="none"/><path class="arm-right" d="M22 31 Q40 39 43 20" fill="none"/><path class="leg-left" d="M-14 65 L-20 89 L-4 89" fill="none" stroke-width="9"/><path class="leg-right" d="M14 65 L21 89 L34 89" fill="none" stroke-width="9"/><rect x="-29" y="14" width="58" height="58" rx="24" fill="#ffc85c"/><path d="M-19 35 Q0 48 19 35 L17 69 L-17 69Z" fill="#398565"/><circle cx="0" cy="3" r="36" fill="#ffc85c"/><path d="M-28 -23 Q-36 -50 -13 -32 M12 -31 Q34 -51 28 -22" fill="#ffc85c"/><path d="M-6 -31 Q1 -43 9 -33" fill="#6b9660"/><ellipse cx="-13" cy="1" rx="3" ry="4" fill="#344c3c" stroke="none"/><ellipse cx="13" cy="1" rx="3" ry="4" fill="#344c3c" stroke="none"/><ellipse cx="-23" cy="12" rx="7" ry="4" fill="#ed936f" stroke="none"/><ellipse cx="23" cy="12" rx="7" ry="4" fill="#ed936f" stroke="none"/><path d="M-7 12 Q0 22 7 12" fill="none"/><circle cx="0" cy="54" r="5" fill="#ffe9b0" stroke="none"/></g></g><g transform="translate(501 304) scale(.8) rotate(12)"><g stroke="#344c3c" stroke-width="3" stroke-linecap="round" stroke-linejoin="round"><path class="arm-left" d="M-22 31 Q-42 48 -40 66" fill="none"/><path class="arm-right" d="M22 31 Q40 39 43 20" fill="none"/><path class="leg-left" d="M-14 65 L-20 89 L-4 89" fill="none" stroke-width="9"/><path class="leg-right" d="M14 65 L21 89 L34 89" fill="none" stroke-width="9"/><rect x="-29" y="14" width="58" height="58" rx="24" fill="#eaa4a0"/><path d="M-19 35 Q0 48 19 35 L17 69 L-17 69Z" fill="#398565"/><circle cx="0" cy="3" r="36" fill="#eaa4a0"/><path d="M-28 -23 Q-36 -50 -13 -32 M12 -31 Q34 -51 28 -22" fill="#eaa4a0"/><path d="M-6 -31 Q1 -43 9 -33" fill="#6b9660"/><ellipse cx="-13" cy="1" rx="3" ry="4" fill="#344c3c" stroke="none"/><ellipse cx="13" cy="1" rx="3" ry="4" fill="#344c3c" stroke="none"/><ellipse cx="-23" cy="12" rx="7" ry="4" fill="#ed936f" stroke="none"/><ellipse cx="23" cy="12" rx="7" ry="4" fill="#ed936f" stroke="none"/><path d="M-7 12 Q0 22 7 12" fill="none"/><circle cx="0" cy="54" r="5" fill="#ffe9b0" stroke="none"/></g></g><g transform="translate(181 319) scale(.7) rotate(-10)"><g stroke="#344c3c" stroke-width="3" stroke-linecap="round" stroke-linejoin="round"><path class="arm-left" d="M-22 31 Q-42 48 -40 66" fill="none"/><path class="arm-right" d="M22 31 Q40 39 43 20" fill="none"/><path class="leg-left" d="M-14 65 L-20 89 L-4 89" fill="none" stroke-width="9"/><path class="leg-right" d="M14 65 L21 89 L34 89" fill="none" stroke-width="9"/><rect x="-29" y="14" width="58" height="58" rx="24" fill="#b2c3e1"/><path d="M-19 35 Q0 48 19 35 L17 69 L-17 69Z" fill="#398565"/><circle cx="0" cy="3" r="36" fill="#b2c3e1"/><path d="M-28 -23 Q-36 -50 -13 -32 M12 -31 Q34 -51 28 -22" fill="#b2c3e1"/><path d="M-6 -31 Q1 -43 9 -33" fill="#6b9660"/><ellipse cx="-13" cy="1" rx="3" ry="4" fill="#344c3c" stroke="none"/><ellipse cx="13" cy="1" rx="3" ry="4" fill="#344c3c" stroke="none"/><ellipse cx="-23" cy="12" rx="7" ry="4" fill="#ed936f" stroke="none"/><ellipse cx="23" cy="12" rx="7" ry="4" fill="#ed936f" stroke="none"/><path d="M-7 12 Q0 22 7 12" fill="none"/><circle cx="0" cy="54" r="5" fill="#ffe9b0" stroke="none"/></g></g><path d="M244 366l28-9 10 21-28 11z" fill="#e6a177"/><path d="M385 387l21-19 23 20-22 20z" fill="#a08abc"/><path d="M125 79q21-31 40-3 34-9 37 17h-82q-8-8 5-14" fill="#fffaf0"/><path d="M384 82l10-21m16 30 19-6M205 220l-17-12" stroke="#d9aa53" stroke-width="5" stroke-linecap="round"/><g fill="#faf8e9"><circle cx="69" cy="397" r="7"/><circle cx="586" cy="375" r="7"/><circle cx="438" cy="423" r="5"/></g></svg>